<svg xmlns="http://www.w3.org/2000/svg" xmlns:xlink="http://www.w3.org/1999/xlink" width="400" height="250" viewBox="0 0 400 250">
  <defs>
    <linearGradient id="linear-gradient" x1="0.5" x2="0.5" y2="1" gradientUnits="objectBoundingBox">
      <stop offset="0" stop-color="#f8f8f8" stop-opacity="0.082"/>
      <stop offset="1" stop-color="#7c7c7c" stop-opacity="0.059"/>
    </linearGradient>
    <linearGradient id="linear-gradient-2" x1="0.5" x2="0.5" y2="1" gradientUnits="objectBoundingBox">
      <stop offset="0" stop-color="#f0eeef" stop-opacity="0"/>
      <stop offset="1" stop-color="#d5d5d5"/>
    </linearGradient>
  </defs>
  <g id="组_7254" data-name="组 7254" transform="translate(-161 -576.5)">
    <g id="组_7255" data-name="组 7255">
      <rect id="矩形_2899" data-name="矩形 2899" width="400" height="250" transform="translate(161 576.5)" fill="none"/>
      <g id="组_7253" data-name="组 7253">
        <g id="组_7064" data-name="组 7064" transform="translate(-14 -415.987)">
          <path id="路径_8418" data-name="路径 8418" d="M146.016,0C288.549-3.53,305.707,114.151,303,117H0S3.482,3.53,146.016,0Z" transform="translate(223.375 1076)" fill="url(#linear-gradient)"/>
          <ellipse id="椭圆_622" data-name="椭圆 622" cx="192.5" cy="20.344" rx="192.5" ry="20.344" transform="translate(182.5 1172.316)" opacity="0.6" fill="url(#linear-gradient-2)"/>
          <g id="组_7063" data-name="组 7063">
            <path id="路径_8419" data-name="路径 8419" d="M146.016.031C288.549-4.921,305.707,160.175,303,164.171H0S3.482,4.983,146.016.031Z" transform="translate(223.375 1028.829)" fill="url(#linear-gradient)"/>
          </g>
          <g id="联合_11" data-name="联合 11" transform="translate(279.602 1038)" fill="#fff">
            <path d="M 46.15829849243164 36.99980163574219 C 46.10665893554688 36.99980163574219 46.05459976196289 36.99946212768555 46.00312042236328 36.99880981445312 L 45.98947906494141 36.99864196777344 L 45.9758415222168 36.99884033203125 C 45.93515014648438 36.99943923950195 45.8940315246582 36.99980163574219 45.85319900512695 36.99980163574219 L 13.14630031585693 36.99980163574219 C 13.1054801940918 36.99980163574219 13.06435966491699 36.99943923950195 13.0236701965332 36.99884033203125 L 13.01002979278564 36.99864196777344 L 12.9963903427124 36.99880981445312 C 12.94491004943848 36.99946212768555 12.89284992218018 36.99980163574219 12.84119987487793 36.99980163574219 C 9.677380561828613 36.99980163574219 6.703200340270996 35.77375030517578 4.466560363769531 33.54750061035156 C 2.231110095977783 31.32244110107422 1.00000011920929 28.36430168151855 1.00000011920929 25.2180004119873 C 1.00000011920929 22.63324165344238 1.825350165367126 20.18002128601074 3.38683009147644 18.12355041503906 C 4.899060249328613 16.1319408416748 7.047460079193115 14.64277076721191 9.436280250549316 13.93036079406738 L 9.834219932556152 13.81169128417969 L 10.03102970123291 13.44604110717773 C 12.09879016876221 9.604511260986328 16.10137939453125 7.218101024627686 20.4768009185791 7.218101024627686 C 21.70800971984863 7.218101024627686 22.92099952697754 7.405110836029053 24.08206939697266 7.773951053619385 L 24.87718963623047 8.026531219482422 L 25.2681999206543 7.289560794830322 C 27.3265495300293 3.41002082824707 31.34182929992676 1.000000834465027 35.74710083007812 1.000000834465027 C 38.89194869995117 1.000000834465027 41.85338973999023 2.213510751724243 44.08589935302734 4.416980743408203 C 46.31584930419922 6.617930889129639 47.55949020385742 9.550210952758789 47.58774948120117 12.67369079589844 L 47.59516906738281 13.49344062805176 L 48.40045166015625 13.64695072174072 C 53.96252059936523 14.70725059509277 57.9995002746582 19.57358169555664 57.9995002746582 25.2180004119873 C 57.9995002746582 28.36430168151855 56.76839065551758 31.32244110107422 54.53293991088867 33.54750061035156 C 52.29629898071289 35.77375030517578 49.32212066650391 36.99980163574219 46.15829849243164 36.99980163574219 Z" stroke="none"/>
            <path d="M 46.15829849243164 35.99980163574219 C 49.05588912963867 35.99980163574219 51.7795295715332 34.87718200683594 53.82748031616211 32.83874893188477 C 55.87298965454102 30.8027515411377 56.9995002746582 28.09631156921387 56.9995002746582 25.2180004119873 C 56.9995002746582 20.05300140380859 53.3043212890625 15.59979057312012 48.21319198608398 14.6292610168457 L 46.60261917114258 14.32224082946777 L 46.58779144287109 12.68273067474365 C 46.56193923950195 9.825420379638672 45.4239501953125 7.142680644989014 43.38344192504883 5.128700733184814 C 41.33927917480469 3.111130714416504 38.62731170654297 2.000000715255737 35.74710083007812 2.000000715255737 C 31.71282958984375 2.000000715255737 28.03602981567383 4.206430912017822 26.15155982971191 7.758250713348389 L 25.36955070495605 9.232180595397949 L 23.77931976318359 8.727021217346191 C 22.71627044677734 8.389320373535156 21.60515022277832 8.218100547790527 20.4768009185791 8.218100547790527 C 16.46986961364746 8.218100547790527 12.80469036102295 10.40294075012207 10.91158008575439 13.92000102996826 L 10.51794052124023 14.65130043029785 L 9.72206974029541 14.8886604309082 C 7.535140037536621 15.54085063934326 5.568089962005615 16.90446090698242 4.183259963989258 18.72828102111816 C 2.754960060119629 20.60936164855957 2.000000238418579 22.85347175598145 2.000000238418579 25.2180004119873 C 2.000000238418579 28.09631156921387 3.126510143280029 30.8027515411377 5.172019958496094 32.83874893188477 C 7.219970226287842 34.87718200683594 9.943610191345215 35.99980163574219 12.84119987487793 35.99980163574219 C 12.88866996765137 35.99980163574219 12.93650054931641 35.99948120117188 12.98381996154785 35.9988899230957 L 13.01109981536865 35.99855041503906 L 13.03837966918945 35.99895095825195 C 13.07418060302734 35.99946975708008 13.11038017272949 35.99980163574219 13.14630031585693 35.99980163574219 L 45.85319900512695 35.99980163574219 C 45.88912963867188 35.99980163574219 45.92533111572266 35.99946975708008 45.96112823486328 35.99895095825195 L 45.98841094970703 35.99855041503906 L 46.01568984985352 35.9988899230957 C 46.06301116943359 35.99948120117188 46.11083984375 35.99980163574219 46.15829849243164 35.99980163574219 M 46.15829849243164 37.99980163574219 C 46.10247039794922 37.99980163574219 46.04619979858398 37.99943161010742 45.99053955078125 37.99872970581055 C 45.94498062133789 37.9994010925293 45.89892196655273 37.99980163574219 45.85319900512695 37.99980163574219 L 13.14630031585693 37.99980163574219 C 13.10058975219727 37.99980163574219 13.05453014373779 37.9994010925293 13.00897026062012 37.99872970581055 C 12.95331001281738 37.99943161010742 12.89704036712646 37.99980163574219 12.84119987487793 37.99980163574219 C 5.749200344085693 37.99980163574219 1.373290956507844e-07 32.2775993347168 1.373290956507844e-07 25.2180004119873 C 1.373290956507844e-07 19.43628120422363 3.857570171356201 14.55056095123291 9.150489807128906 12.97207069396973 C 11.31424045562744 8.952210426330566 15.57464981079102 6.218101024627686 20.4768009185791 6.218101024627686 C 21.83945083618164 6.218101024627686 23.15258979797363 6.429440975189209 24.38483047485352 6.820880889892578 C 26.5371208190918 2.764280796051025 30.81768035888672 8.178710686479462e-07 35.74710083007812 8.178710686479462e-07 C 42.79970932006836 8.178710686479462e-07 48.52433013916016 5.659160614013672 48.58771133422852 12.66464042663574 C 54.51795959472656 13.79513072967529 58.9995002746582 18.98606109619141 58.9995002746582 25.2180004119873 C 58.9995002746582 32.2775993347168 53.25030136108398 37.99980163574219 46.15829849243164 37.99980163574219 Z" stroke="none" fill="#c6c7c6"/>
          </g>
          <g id="联合_10" data-name="联合 10" transform="translate(442 1083)" fill="#fff">
            <path d="M 66.50009918212891 53.99990463256836 C 66.41445159912109 53.99990463256836 66.32815551757812 53.99919891357422 66.2427978515625 53.99797439575195 L 66.22701263427734 53.99774932861328 L 66.21125030517578 53.99802017211914 C 66.14101409912109 53.99922180175781 66.07022857666016 53.99990463256836 65.99971008300781 53.99990463256836 L 18.9998950958252 53.99990463256836 C 18.92940139770508 53.99990463256836 18.85901260375977 53.99923324584961 18.78878974914551 53.99803161621094 L 18.77301406860352 53.99776077270508 L 18.75723648071289 53.99798583984375 C 18.67190742492676 53.99921035766602 18.58603668212891 53.99990463256836 18.50040245056152 53.99990463256836 C 13.82581329345703 53.99990463256836 9.431036949157715 52.17960739135742 6.125660419464111 48.87432861328125 C 2.82033109664917 45.56911468505859 1.000001668930054 41.17463302612305 1.000001668930054 36.50039672851562 C 1.000001668930054 32.65945816040039 2.220366239547729 29.01439666748047 4.529178142547607 25.95929145812988 C 5.640425205230713 24.48884391784668 6.969178199768066 23.20772743225098 8.478554725646973 22.15151596069336 C 10.00842475891113 21.08096122741699 11.68743705749512 20.26753807067871 13.46894264221191 19.73383331298828 L 13.86713123321533 19.61453819274902 L 14.06342506408691 19.24814987182617 C 17.11966133117676 13.54368019104004 23.03468322753906 9.999997138977051 29.50020217895508 9.999997138977051 C 31.31936645507812 9.999997138977051 33.11151885986328 10.27765655517578 34.82687377929688 10.82526779174805 L 35.62434387207031 11.07985591888428 L 36.0152587890625 10.33960914611816 C 37.47940063476562 7.567091464996338 39.666259765625 5.23175048828125 42.33938980102539 3.586056232452393 C 45.08745956420898 1.89424455165863 48.25508499145508 0.9999974966049194 51.49980163574219 0.9999974966049194 C 56.14642333984375 0.9999974966049194 60.52237701416016 2.801656246185303 63.82157897949219 6.073079586029053 C 67.11875152587891 9.342479705810547 68.95760345458984 13.69878578186035 68.99937438964844 18.33950424194336 L 69.00675201416016 19.15866851806641 L 69.81134033203125 19.31266784667969 C 78.03257751464844 20.88628005981445 83.99960327148438 28.11476135253906 83.99960327148438 36.50039672851562 C 83.99960327148438 41.17459869384766 82.17930603027344 45.5690803527832 78.87404632568359 48.87434005737305 C 75.56877899169922 52.17960739135742 71.17429351806641 53.99990463256836 66.50009918212891 53.99990463256836 Z" stroke="none"/>
            <path d="M 66.50009918212891 52.99990081787109 C 70.90718841552734 52.99990081787109 75.05055236816406 51.28362655639648 78.16693878173828 48.167236328125 C 81.2833251953125 45.05084991455078 82.99960327148438 40.90748977661133 82.99960327148438 36.50040054321289 C 82.99960327148438 28.59381294250488 77.37407684326172 21.77838706970215 69.62336730957031 20.29483795166016 L 68.01419067382812 19.98683738708496 L 67.99942779541016 18.34851264953613 C 67.96002960205078 13.97308826446533 66.22624969482422 9.865762710571289 63.11746597290039 6.783163070678711 C 60.00680160522461 3.698700428009033 55.88090133666992 2.000000476837158 51.49980163574219 2.000000476837158 C 48.44031524658203 2.000000476837158 45.45397567749023 2.842912912368774 42.86365127563477 4.437625408172607 C 40.34262847900391 5.989663124084473 38.28026580810547 8.192025184631348 36.89952850341797 10.8065881729126 L 36.11770248413086 12.28707504272461 L 34.52275085449219 11.77790069580078 C 32.90585327148438 11.26172542572021 31.21601486206055 11 29.50020217895508 11 C 23.40398979187012 11 17.82672691345215 14.34146308898926 14.94488906860352 19.72039985656738 L 14.55228900909424 20.45318794250488 L 13.75592708587646 20.69176292419434 C 12.07683944702148 21.19478797912598 10.49416446685791 21.96158790588379 9.051901817321777 22.97083854675293 C 7.628326416015625 23.96701240539551 6.375089168548584 25.17532539367676 5.32698917388916 26.56220054626465 C 3.15045166015625 29.44227600097656 2.000001668930054 32.87884902954102 2.000001668930054 36.50040054321289 C 2.000001668930054 40.90751266479492 3.716301679611206 45.05087661743164 6.832751750946045 48.16721343994141 C 9.949264526367188 51.28361129760742 14.09291458129883 52.99990081787109 18.50040245056152 52.99990081787109 C 18.58120155334473 52.99990081787109 18.6622257232666 52.99924850463867 18.74275207519531 52.99808883666992 L 18.77446365356445 52.99762725830078 L 18.8061637878418 52.99817657470703 C 18.87060165405273 52.99928665161133 18.93518829345703 52.99990081787109 18.99990081787109 52.99990081787109 L 65.99970245361328 52.99990081787109 C 66.06455230712891 52.99990081787109 66.129638671875 52.99927520751953 66.19419860839844 52.99816131591797 L 66.22560119628906 52.99762725830078 L 66.25700378417969 52.99807357788086 C 66.33765411376953 52.99922561645508 66.419189453125 52.99990081787109 66.50009918212891 52.99990081787109 M 66.50009918212891 54.99990081787109 C 66.40967559814453 54.99990081787109 66.31856536865234 54.99916458129883 66.22843933105469 54.99787521362305 C 66.15250396728516 54.99917602539062 66.07596588134766 54.99990081787109 65.99970245361328 54.99990081787109 L 18.99990081787109 54.99990081787109 C 18.92365074157715 54.99990081787109 18.8475399017334 54.99918746948242 18.7716007232666 54.99787521362305 C 18.68148994445801 54.99917602539062 18.5908260345459 54.99990081787109 18.50040245056152 54.99990081787109 C 8.28270149230957 54.99990081787109 1.635742137295892e-06 46.71720123291016 1.635742137295892e-06 36.50040054321289 C 1.635742137295892e-06 28.13116264343262 5.556351661682129 21.06040000915527 13.18196392059326 18.77588844299316 C 16.29923820495605 12.95750045776367 22.4374885559082 9 29.50020217895508 9 C 31.46386337280273 9 33.35528945922852 9.305763244628906 35.13098907470703 9.872637748718262 C 38.231689453125 4.001125335693359 44.3984260559082 4.089355343239731e-07 51.49980163574219 4.089355343239731e-07 C 61.66075134277344 4.089355343239731e-07 69.90804290771484 8.191125869750977 69.99935150146484 18.33049964904785 C 78.54347991943359 19.96591377258301 84.99960327148438 27.47883796691895 84.99960327148438 36.50040054321289 C 84.99960327148438 46.71720123291016 76.71690368652344 54.99990081787109 66.50009918212891 54.99990081787109 Z" stroke="none" fill="#c6c7c6"/>
          </g>
          <path id="路径_8429" data-name="路径 8429" d="M428.365,662.887c-.013-.059-1.3-5.946,1.332-10.835s8.264-7.045,8.321-7.067l.257-.1.061.268c.013.059,1.3,5.946-1.332,10.835s-8.264,7.045-8.321,7.067l-.257.1Zm9.557-17.344c-1.127.485-5.576,2.607-7.8,6.737s-1.555,9.014-1.341,10.221c1.127-.484,5.574-2.6,7.8-6.737S438.137,646.751,437.923,645.543Z" transform="translate(-106.983 535.887)" fill="#f1f1f1"/>
          <path id="路径_8430" data-name="路径 8430" d="M436.223,677.717c-4.738,2.85-6.563,8.512-6.563,8.512s5.857,1.04,10.595-1.81,6.563-8.512,6.563-8.512S440.961,674.867,436.223,677.717Z" transform="translate(-108.217 512.446)" fill="#f1f1f1"/>
        </g>
        <g id="矩形_2898" data-name="矩形 2898" transform="translate(310.908 655.688)" fill="#fff" stroke="#c6c7c6" stroke-width="2" stroke-dasharray="4">
          <rect width="136" height="32.594" rx="9" stroke="none"/>
          <rect x="1" y="1" width="134" height="30.594" rx="8" fill="none"/>
        </g>
        <g id="椭圆_652" data-name="椭圆 652" transform="translate(364 605.984)" fill="#fff" stroke="#c6c7c6" stroke-width="1">
          <circle cx="4" cy="4" r="4" stroke="none"/>
          <circle cx="4" cy="4" r="3.5" fill="none"/>
        </g>
        <rect id="矩形_2794" data-name="矩形 2794" width="34" height="5" rx="2" transform="translate(356 666.984)" fill="#e5ecec"/>
        <rect id="矩形_2799" data-name="矩形 2799" width="34" height="5" rx="2" transform="translate(356 704.984)" fill="#e5ecec"/>
        <rect id="矩形_2797" data-name="矩形 2797" width="49" height="5" rx="2" transform="translate(356 675.984)" fill="#e5ecec"/>
        <rect id="矩形_2798" data-name="矩形 2798" width="49" height="5" rx="2" transform="translate(356 713.984)" fill="#e5ecec"/>
        <circle id="椭圆_663" data-name="椭圆 663" cx="1.858" cy="1.858" r="1.858" transform="translate(410.908 721)" fill="#3ac18e"/>
        <g id="组_7252" data-name="组 7252" transform="translate(267.598 623.984)">
          <path id="路径_8701" data-name="路径 8701" d="M689.238,94.278H688.3V72.634c0-6.918-6.63-12.527-14.809-12.527H619.288c-8.179,0-14.809,5.608-14.809,12.527V191.374c0,6.918,6.63,12.527,14.809,12.527H673.5c8.179,0,14.809-5.608,14.809-12.527V109.685h.934Z" transform="translate(-544.071 -60.107)" fill="#c6c7c6"/>
          <path id="路径_8702" data-name="路径 8702" d="M689.894,76.6h-7.334a3.767,3.767,0,0,1-.523,4.162,5.86,5.86,0,0,1-4.52,1.968H645.328a5.86,5.86,0,0,1-4.519-1.967,3.767,3.767,0,0,1-.523-4.163h-6.85c-6.331,0-11.463,4.193-11.463,9.365v118.7c0,5.172,5.132,9.365,11.463,9.365h56.458c6.33,0,11.463-4.193,11.463-9.365h0V85.968c0-5.172-5.132-9.365-11.463-9.365Z" transform="translate(-559.645 -74.127)" fill="#fff"/>
          <path id="路径_8703" data-name="路径 8703" d="M726.017,584.671a17.754,17.754,0,1,1,13.129-5.811l3.708,4.156L741,583.8c-2.862,1.214-5.663.033-7.235-.91A17.777,17.777,0,0,1,726.017,584.671Zm0-32.59a14.855,14.855,0,1,0,7.141,27.883l.792-.435.736.524a7.789,7.789,0,0,0,2.81,1.286l-2.333-2.615,1.023-.961a14.714,14.714,0,0,0,4.685-10.826A14.872,14.872,0,0,0,726.017,552.081Z" transform="translate(-614.281 -452.535)" fill="#e6e6e6"/>
          <path id="路径_8704" data-name="路径 8704" d="M748.33,572.991a16.289,16.289,0,1,0-8.46,14.291c1.126.8,3.874,2.4,6.589,1.248l-3.268-3.663A16.249,16.249,0,0,0,748.33,572.991Z" transform="translate(-620.299 -458.59)" fill="#fff"/>
          <rect id="矩形_2888" data-name="矩形 2888" width="11.644" height="1.081" transform="translate(103.344 111.069)" fill="#3ac18e"/>
          <rect id="矩形_2889" data-name="矩形 2889" width="20.294" height="1.081" transform="translate(103.344 114.809)" fill="#e6e6e6"/>
          <rect id="矩形_2890" data-name="矩形 2890" width="20.274" height="1.081" transform="translate(103.344 118.55)" fill="#e6e6e6"/>
          <path id="路径_8705" data-name="路径 8705" d="M726.017,185.671a17.754,17.754,0,1,1,13.129-5.811l3.708,4.156L741,184.8c-2.862,1.214-5.663.033-7.235-.91A17.777,17.777,0,0,1,726.017,185.671Zm0-32.59a14.855,14.855,0,1,0,7.141,27.883l.792-.435.737.524a7.788,7.788,0,0,0,2.81,1.286l-2.333-2.615,1.023-.961a14.714,14.714,0,0,0,4.685-10.826A14.872,14.872,0,0,0,726.017,153.081Z" transform="translate(-614.281 -132.369)" fill="#e6e6e6"/>
          <path id="路径_8706" data-name="路径 8706" d="M748.33,173.991a16.289,16.289,0,1,0-8.46,14.29c1.126.8,3.874,2.4,6.589,1.249l-3.268-3.663A16.249,16.249,0,0,0,748.33,173.991Z" transform="translate(-620.298 -138.423)" fill="#fff"/>
          <rect id="矩形_2891" data-name="矩形 2891" width="11.644" height="1.081" transform="translate(103.344 32.235)" fill="#3ac18e"/>
          <rect id="矩形_2892" data-name="矩形 2892" width="20.294" height="1.081" transform="translate(103.344 35.976)" fill="#e6e6e6"/>
          <rect id="矩形_2893" data-name="矩形 2893" width="20.274" height="1.081" transform="translate(103.344 39.716)" fill="#e6e6e6"/>
          <circle id="椭圆_712" data-name="椭圆 712" cx="2.569" cy="2.569" r="2.569" transform="translate(131.738 49.68)" fill="#e6e6e6"/>
          <circle id="椭圆_713" data-name="椭圆 713" cx="2.569" cy="2.569" r="2.569" transform="translate(131.738 128.514)" fill="#e6e6e6"/>
          <path id="路径_8707" data-name="路径 8707" d="M576.9,372.79c-1.88,1.127-5.229,2.54-8.651,1.088l-2.212-.938,4.433-4.969a21.172,21.172,0,1,1,6.43,4.82Z" transform="translate(-499.315 -278.742)" fill="#e97c2c"/>
          <path id="路径_8708" data-name="路径 8708" d="M690.47,359.939a19.484,19.484,0,0,0-17.76-19.407c.566-.05,1.14-.077,1.721-.077a19.483,19.483,0,0,1,0,38.967c-.58,0-1.153-.027-1.719-.077A19.484,19.484,0,0,0,690.47,359.939Z" transform="translate(-585.76 -285.065)" opacity="0.1" style="isolation: isolate"/>
          <rect id="矩形_2894" data-name="矩形 2894" width="13.922" height="1.293" transform="translate(75.664 70.989)" fill="#fff"/>
          <rect id="矩形_2895" data-name="矩形 2895" width="24.265" height="1.293" transform="translate(75.664 75.461)" fill="#fff"/>
          <rect id="矩形_2896" data-name="矩形 2896" width="24.241" height="1.293" transform="translate(75.664 79.933)" fill="#fff"/>
          <path id="路径_8709" data-name="路径 8709" d="M232.829,838.288h75.277a.2.2,0,1,0,0-.4H232.829a.2.2,0,0,0,0,.4Z" transform="translate(-232.632 -684.219)" fill="#ccc"/>
          <path id="路径_8710" data-name="路径 8710" d="M416.417,402.075l.3-1.488s4.376-1.488,4.866,1.488Z" transform="translate(-380.105 -333.018)" fill="#e6e6e6"/>
          <path id="路径_8711" data-name="路径 8711" d="M226.292,719.154h2.869l1.365-11.066h-4.234Z" transform="translate(-181.581 -568.186)" fill="#9f616a"/>
          <path id="路径_8712" data-name="路径 8712" d="M455.222,819.464h5.65a3.6,3.6,0,0,1,3.6,3.6v.117h-9.251Z" transform="translate(-411.243 -669.432)" fill="#2f2e41"/>
          <path id="路径_8713" data-name="路径 8713" d="M156.292,719.154h2.869l1.365-11.066h-4.234Z" transform="translate(-125.411 -568.186)" fill="#9f616a"/>
          <path id="路径_8714" data-name="路径 8714" d="M385.222,819.464h5.65a3.6,3.6,0,0,1,3.6,3.6v.117h-9.251Z" transform="translate(-355.073 -669.432)" fill="#2f2e41"/>
          <path id="路径_8715" data-name="路径 8715" d="M140.953,379.935l-3.273-.3-2.083,9.818.3,8.926,3.273,11.9,4.463-2.678-2.38-12.2Z" transform="translate(-108.806 -304.629)" fill="#e97c2c"/>
          <path id="路径_8716" data-name="路径 8716" d="M151.569,524.638l.733,6.248.688,14.579-1.581,21.725,5.653-.3,2.771-22.612,1.692-10.414,2.38,11.9,1.488,22.314,5.8-.465V545.684l.149-15.988-2.083-6.248Z" transform="translate(-121.494 -420.026)" fill="#2f2e41"/>
          <path id="路径_8717" data-name="路径 8717" d="M390.95,404.5s-2.083-2.975-5.951-.893l-1.785,2.38-5.653,4.165,1.19,13.984-1.488,17.554,21.124-.3-3.57-17.554V405.1Z" transform="translate(-348.688 -335.148)" fill="#e97c2c"/>
          <path id="路径_8718" data-name="路径 8718" d="M149,404.632l-1.706,20.4,2.152-11.055Z" transform="translate(-118.19 -324.686)" opacity="0.25"/>
          <path id="路径_8719" data-name="路径 8719" d="M536.836,526.576a2.194,2.194,0,0,1-2.875-1.748l-4.868-1.2.01-3.137,6.851,1.8a2.206,2.206,0,0,1,.883,4.292Z" transform="translate(-470.519 -429.528)" fill="#9f616a"/>
          <rect id="矩形_2897" data-name="矩形 2897" width="4.76" height="2.083" transform="matrix(0.172, -0.985, 0.985, 0.172, 60.408, 95.614)" fill="#e6e6e6"/>
          <circle id="椭圆_714" data-name="椭圆 714" cx="5.975" cy="5.975" r="5.975" transform="translate(30.843 57.567) rotate(-28.663)" fill="#9f616a"/>
          <path id="路径_8720" data-name="路径 8720" d="M401.671,341.415a6.06,6.06,0,0,1-3.965-11.391,7.086,7.086,0,0,1,3.346-.6c1.787.094,3.524.754,5.312.706l.259.417.977-.237.209.776.257-.009a1.482,1.482,0,0,1-1.254,2.073,5.79,5.79,0,0,1-1.126-.245,1.134,1.134,0,0,0-1.08.224c-.338.37-.191.947-.12,1.442s-.105,1.163-.606,1.179c-.256.008-.5-.175-.75-.127a.609.609,0,0,0-.4.7,2.8,2.8,0,0,0,.35.817,3.291,3.291,0,0,1-1.306,4.2" transform="translate(-362.274 -276.201)" fill="#2f2e41"/>
          <path id="路径_8721" data-name="路径 8721" d="M449.43,415.284l1.42-1.15a2.593,2.593,0,0,1,2.814,2.839l4.586,14.345,8.8,3.117-1.185,6.125-12.447-4.742-6.323-10.479Z" transform="translate(-404.72 -344.184)" fill="#e97c2c"/>
        </g>
      </g>
    </g>
  </g>
</svg>
