<svg xmlns="http://www.w3.org/2000/svg" xmlns:xlink="http://www.w3.org/1999/xlink" width="400" height="250" viewBox="0 0 400 250">
  <defs>
    <linearGradient id="linear-gradient" x1="0.5" x2="0.5" y2="1" gradientUnits="objectBoundingBox">
      <stop offset="0" stop-color="#f8f8f8" stop-opacity="0.082"/>
      <stop offset="1" stop-color="#7c7c7c" stop-opacity="0.059"/>
    </linearGradient>
    <linearGradient id="linear-gradient-2" x1="0.5" x2="0.5" y2="1" gradientUnits="objectBoundingBox">
      <stop offset="0" stop-color="#f0eeef" stop-opacity="0"/>
      <stop offset="1" stop-color="#d5d5d5"/>
    </linearGradient>
  </defs>
  <g id="组_7180" data-name="组 7180" transform="translate(-161 -571)">
    <g id="组_7160" data-name="组 7160" transform="translate(0 -0.016)">
      <rect id="矩形_2859" data-name="矩形 2859" width="400" height="250" transform="translate(161 571.016)" fill="none"/>
      <g id="组_7113" data-name="组 7113">
        <g id="矩形_2783" data-name="矩形 2783" transform="translate(235 595)" fill="#fff" stroke="#c6c7c6" stroke-width="2" stroke-dasharray="4">
          <rect width="125" height="174" rx="20" stroke="none"/>
          <rect x="1" y="1" width="123" height="172" rx="19" fill="none"/>
        </g>
        <g id="组_7064" data-name="组 7064" transform="translate(-14 -415.972)">
          <path id="路径_8418" data-name="路径 8418" d="M146.016,0C288.549-3.53,305.707,114.151,303,117H0S3.482,3.53,146.016,0Z" transform="translate(223.375 1076)" fill="url(#linear-gradient)"/>
          <ellipse id="椭圆_622" data-name="椭圆 622" cx="192.5" cy="20.344" rx="192.5" ry="20.344" transform="translate(182.5 1172.316)" opacity="0.6" fill="url(#linear-gradient-2)"/>
          <g id="组_7063" data-name="组 7063">
            <path id="路径_8419" data-name="路径 8419" d="M146.016.031C288.549-4.921,305.707,160.175,303,164.171H0S3.482,4.983,146.016.031Z" transform="translate(223.375 1028.829)" fill="url(#linear-gradient)"/>
          </g>
          <g id="联合_11" data-name="联合 11" transform="translate(248 1038)" fill="#ececec">
            <path d="M 46.15829849243164 36.99980163574219 C 46.10665893554688 36.99980163574219 46.05459976196289 36.99946212768555 46.00312042236328 36.99880981445312 L 45.98947906494141 36.99864196777344 L 45.9758415222168 36.99884033203125 C 45.93515014648438 36.99943923950195 45.8940315246582 36.99980163574219 45.85319900512695 36.99980163574219 L 13.14630031585693 36.99980163574219 C 13.1054801940918 36.99980163574219 13.06435966491699 36.99943923950195 13.0236701965332 36.99884033203125 L 13.01002979278564 36.99864196777344 L 12.9963903427124 36.99880981445312 C 12.94491004943848 36.99946212768555 12.89284992218018 36.99980163574219 12.84119987487793 36.99980163574219 C 9.677380561828613 36.99980163574219 6.703200340270996 35.77375030517578 4.466560363769531 33.54750061035156 C 2.231110095977783 31.32244110107422 1.00000011920929 28.36430168151855 1.00000011920929 25.2180004119873 C 1.00000011920929 22.63324165344238 1.825350165367126 20.18002128601074 3.38683009147644 18.12355041503906 C 4.899060249328613 16.1319408416748 7.047460079193115 14.64277076721191 9.436280250549316 13.93036079406738 L 9.834219932556152 13.81169128417969 L 10.03102970123291 13.44604110717773 C 12.09879016876221 9.604511260986328 16.10137939453125 7.218101024627686 20.4768009185791 7.218101024627686 C 21.70800971984863 7.218101024627686 22.92099952697754 7.405110836029053 24.08206939697266 7.773951053619385 L 24.87718963623047 8.026531219482422 L 25.2681999206543 7.289560794830322 C 27.3265495300293 3.41002082824707 31.34182929992676 1.000000834465027 35.74710083007812 1.000000834465027 C 38.89194869995117 1.000000834465027 41.85338973999023 2.213510751724243 44.08589935302734 4.416980743408203 C 46.31584930419922 6.617930889129639 47.55949020385742 9.550210952758789 47.58774948120117 12.67369079589844 L 47.59516906738281 13.49344062805176 L 48.40045166015625 13.64695072174072 C 53.96252059936523 14.70725059509277 57.9995002746582 19.57358169555664 57.9995002746582 25.2180004119873 C 57.9995002746582 28.36430168151855 56.76839065551758 31.32244110107422 54.53293991088867 33.54750061035156 C 52.29629898071289 35.77375030517578 49.32212066650391 36.99980163574219 46.15829849243164 36.99980163574219 Z" stroke="none"/>
            <path d="M 46.15829849243164 35.99980163574219 C 49.05588912963867 35.99980163574219 51.7795295715332 34.87718200683594 53.82748031616211 32.83874893188477 C 55.87298965454102 30.8027515411377 56.9995002746582 28.09631156921387 56.9995002746582 25.2180004119873 C 56.9995002746582 20.05300140380859 53.3043212890625 15.59979057312012 48.21319198608398 14.6292610168457 L 46.60261917114258 14.32224082946777 L 46.58779144287109 12.68273067474365 C 46.56193923950195 9.825420379638672 45.4239501953125 7.142680644989014 43.38344192504883 5.128700733184814 C 41.33927917480469 3.111130714416504 38.62731170654297 2.000000715255737 35.74710083007812 2.000000715255737 C 31.71282958984375 2.000000715255737 28.03602981567383 4.206430912017822 26.15155982971191 7.758250713348389 L 25.36955070495605 9.232180595397949 L 23.77931976318359 8.727021217346191 C 22.71627044677734 8.389320373535156 21.60515022277832 8.218100547790527 20.4768009185791 8.218100547790527 C 16.46986961364746 8.218100547790527 12.80469036102295 10.40294075012207 10.91158008575439 13.92000102996826 L 10.51794052124023 14.65130043029785 L 9.72206974029541 14.8886604309082 C 7.535140037536621 15.54085063934326 5.568089962005615 16.90446090698242 4.183259963989258 18.72828102111816 C 2.754960060119629 20.60936164855957 2.000000238418579 22.85347175598145 2.000000238418579 25.2180004119873 C 2.000000238418579 28.09631156921387 3.126510143280029 30.8027515411377 5.172019958496094 32.83874893188477 C 7.219970226287842 34.87718200683594 9.943610191345215 35.99980163574219 12.84119987487793 35.99980163574219 C 12.88866996765137 35.99980163574219 12.93650054931641 35.99948120117188 12.98381996154785 35.9988899230957 L 13.01109981536865 35.99855041503906 L 13.03837966918945 35.99895095825195 C 13.07418060302734 35.99946975708008 13.11038017272949 35.99980163574219 13.14630031585693 35.99980163574219 L 45.85319900512695 35.99980163574219 C 45.88912963867188 35.99980163574219 45.92533111572266 35.99946975708008 45.96112823486328 35.99895095825195 L 45.98841094970703 35.99855041503906 L 46.01568984985352 35.9988899230957 C 46.06301116943359 35.99948120117188 46.11083984375 35.99980163574219 46.15829849243164 35.99980163574219 M 46.15829849243164 37.99980163574219 C 46.10247039794922 37.99980163574219 46.04619979858398 37.99943161010742 45.99053955078125 37.99872970581055 C 45.94498062133789 37.9994010925293 45.89892196655273 37.99980163574219 45.85319900512695 37.99980163574219 L 13.14630031585693 37.99980163574219 C 13.10058975219727 37.99980163574219 13.05453014373779 37.9994010925293 13.00897026062012 37.99872970581055 C 12.95331001281738 37.99943161010742 12.89704036712646 37.99980163574219 12.84119987487793 37.99980163574219 C 5.749200344085693 37.99980163574219 1.373290956507844e-07 32.2775993347168 1.373290956507844e-07 25.2180004119873 C 1.373290956507844e-07 19.43628120422363 3.857570171356201 14.55056095123291 9.150489807128906 12.97207069396973 C 11.31424045562744 8.952210426330566 15.57464981079102 6.218101024627686 20.4768009185791 6.218101024627686 C 21.83945083618164 6.218101024627686 23.15258979797363 6.429440975189209 24.38483047485352 6.820880889892578 C 26.5371208190918 2.764280796051025 30.81768035888672 8.178710686479462e-07 35.74710083007812 8.178710686479462e-07 C 42.79970932006836 8.178710686479462e-07 48.52433013916016 5.659160614013672 48.58771133422852 12.66464042663574 C 54.51795959472656 13.79513072967529 58.9995002746582 18.98606109619141 58.9995002746582 25.2180004119873 C 58.9995002746582 32.2775993347168 53.25030136108398 37.99980163574219 46.15829849243164 37.99980163574219 Z" stroke="none" fill="#c6c7c6"/>
          </g>
          <g id="联合_10" data-name="联合 10" transform="translate(442 1083)" fill="#ececec">
            <path d="M 66.50009918212891 53.99990463256836 C 66.41445159912109 53.99990463256836 66.32815551757812 53.99919891357422 66.2427978515625 53.99797439575195 L 66.22701263427734 53.99774932861328 L 66.21125030517578 53.99802017211914 C 66.14101409912109 53.99922180175781 66.07022857666016 53.99990463256836 65.99971008300781 53.99990463256836 L 18.9998950958252 53.99990463256836 C 18.92940139770508 53.99990463256836 18.85901260375977 53.99923324584961 18.78878974914551 53.99803161621094 L 18.77301406860352 53.99776077270508 L 18.75723648071289 53.99798583984375 C 18.67190742492676 53.99921035766602 18.58603668212891 53.99990463256836 18.50040245056152 53.99990463256836 C 13.82581329345703 53.99990463256836 9.431036949157715 52.17960739135742 6.125660419464111 48.87432861328125 C 2.82033109664917 45.56911468505859 1.000001668930054 41.17463302612305 1.000001668930054 36.50039672851562 C 1.000001668930054 32.65945816040039 2.220366239547729 29.01439666748047 4.529178142547607 25.95929145812988 C 5.640425205230713 24.48884391784668 6.969178199768066 23.20772743225098 8.478554725646973 22.15151596069336 C 10.00842475891113 21.08096122741699 11.68743705749512 20.26753807067871 13.46894264221191 19.73383331298828 L 13.86713123321533 19.61453819274902 L 14.06342506408691 19.24814987182617 C 17.11966133117676 13.54368019104004 23.03468322753906 9.999997138977051 29.50020217895508 9.999997138977051 C 31.31936645507812 9.999997138977051 33.11151885986328 10.27765655517578 34.82687377929688 10.82526779174805 L 35.62434387207031 11.07985591888428 L 36.0152587890625 10.33960914611816 C 37.47940063476562 7.567091464996338 39.666259765625 5.23175048828125 42.33938980102539 3.586056232452393 C 45.08745956420898 1.89424455165863 48.25508499145508 0.9999974966049194 51.49980163574219 0.9999974966049194 C 56.14642333984375 0.9999974966049194 60.52237701416016 2.801656246185303 63.82157897949219 6.073079586029053 C 67.11875152587891 9.342479705810547 68.95760345458984 13.69878578186035 68.99937438964844 18.33950424194336 L 69.00675201416016 19.15866851806641 L 69.81134033203125 19.31266784667969 C 78.03257751464844 20.88628005981445 83.99960327148438 28.11476135253906 83.99960327148438 36.50039672851562 C 83.99960327148438 41.17459869384766 82.17930603027344 45.5690803527832 78.87404632568359 48.87434005737305 C 75.56877899169922 52.17960739135742 71.17429351806641 53.99990463256836 66.50009918212891 53.99990463256836 Z" stroke="none"/>
            <path d="M 66.50009918212891 52.99990081787109 C 70.90718841552734 52.99990081787109 75.05055236816406 51.28362655639648 78.16693878173828 48.167236328125 C 81.2833251953125 45.05084991455078 82.99960327148438 40.90748977661133 82.99960327148438 36.50040054321289 C 82.99960327148438 28.59381294250488 77.37407684326172 21.77838706970215 69.62336730957031 20.29483795166016 L 68.01419067382812 19.98683738708496 L 67.99942779541016 18.34851264953613 C 67.96002960205078 13.97308826446533 66.22624969482422 9.865762710571289 63.11746597290039 6.783163070678711 C 60.00680160522461 3.698700428009033 55.88090133666992 2.000000476837158 51.49980163574219 2.000000476837158 C 48.44031524658203 2.000000476837158 45.45397567749023 2.842912912368774 42.86365127563477 4.437625408172607 C 40.34262847900391 5.989663124084473 38.28026580810547 8.192025184631348 36.89952850341797 10.8065881729126 L 36.11770248413086 12.28707504272461 L 34.52275085449219 11.77790069580078 C 32.90585327148438 11.26172542572021 31.21601486206055 11 29.50020217895508 11 C 23.40398979187012 11 17.82672691345215 14.34146308898926 14.94488906860352 19.72039985656738 L 14.55228900909424 20.45318794250488 L 13.75592708587646 20.69176292419434 C 12.07683944702148 21.19478797912598 10.49416446685791 21.96158790588379 9.051901817321777 22.97083854675293 C 7.628326416015625 23.96701240539551 6.375089168548584 25.17532539367676 5.32698917388916 26.56220054626465 C 3.15045166015625 29.44227600097656 2.000001668930054 32.87884902954102 2.000001668930054 36.50040054321289 C 2.000001668930054 40.90751266479492 3.716301679611206 45.05087661743164 6.832751750946045 48.16721343994141 C 9.949264526367188 51.28361129760742 14.09291458129883 52.99990081787109 18.50040245056152 52.99990081787109 C 18.58120155334473 52.99990081787109 18.6622257232666 52.99924850463867 18.74275207519531 52.99808883666992 L 18.77446365356445 52.99762725830078 L 18.8061637878418 52.99817657470703 C 18.87060165405273 52.99928665161133 18.93518829345703 52.99990081787109 18.99990081787109 52.99990081787109 L 65.99970245361328 52.99990081787109 C 66.06455230712891 52.99990081787109 66.129638671875 52.99927520751953 66.19419860839844 52.99816131591797 L 66.22560119628906 52.99762725830078 L 66.25700378417969 52.99807357788086 C 66.33765411376953 52.99922561645508 66.419189453125 52.99990081787109 66.50009918212891 52.99990081787109 M 66.50009918212891 54.99990081787109 C 66.40967559814453 54.99990081787109 66.31856536865234 54.99916458129883 66.22843933105469 54.99787521362305 C 66.15250396728516 54.99917602539062 66.07596588134766 54.99990081787109 65.99970245361328 54.99990081787109 L 18.99990081787109 54.99990081787109 C 18.92365074157715 54.99990081787109 18.8475399017334 54.99918746948242 18.7716007232666 54.99787521362305 C 18.68148994445801 54.99917602539062 18.5908260345459 54.99990081787109 18.50040245056152 54.99990081787109 C 8.28270149230957 54.99990081787109 1.635742137295892e-06 46.71720123291016 1.635742137295892e-06 36.50040054321289 C 1.635742137295892e-06 28.13116264343262 5.556351661682129 21.06040000915527 13.18196392059326 18.77588844299316 C 16.29923820495605 12.95750045776367 22.4374885559082 9 29.50020217895508 9 C 31.46386337280273 9 33.35528945922852 9.305763244628906 35.13098907470703 9.872637748718262 C 38.231689453125 4.001125335693359 44.3984260559082 4.089355343239731e-07 51.49980163574219 4.089355343239731e-07 C 61.66075134277344 4.089355343239731e-07 69.90804290771484 8.191125869750977 69.99935150146484 18.33049964904785 C 78.54347991943359 19.96591377258301 84.99960327148438 27.47883796691895 84.99960327148438 36.50040054321289 C 84.99960327148438 46.71720123291016 76.71690368652344 54.99990081787109 66.50009918212891 54.99990081787109 Z" stroke="none" fill="#c6c7c6"/>
          </g>
          <path id="路径_8429" data-name="路径 8429" d="M428.365,662.887c-.013-.059-1.3-5.946,1.332-10.835s8.264-7.045,8.321-7.067l.257-.1.061.268c.013.059,1.3,5.946-1.332,10.835s-8.264,7.045-8.321,7.067l-.257.1Zm9.557-17.344c-1.127.485-5.576,2.607-7.8,6.737s-1.555,9.014-1.341,10.221c1.127-.484,5.574-2.6,7.8-6.737S438.137,646.751,437.923,645.543Z" transform="translate(-106.983 535.887)" fill="#f1f1f1"/>
          <path id="路径_8430" data-name="路径 8430" d="M436.223,677.717c-4.738,2.85-6.563,8.512-6.563,8.512s5.857,1.04,10.595-1.81,6.563-8.512,6.563-8.512S440.961,674.867,436.223,677.717Z" transform="translate(-108.217 512.446)" fill="#f1f1f1"/>
        </g>
        <g id="矩形_2789" data-name="矩形 2789" transform="translate(252 632)" fill="#ececec" stroke="#c6c7c6" stroke-width="2">
          <rect width="219" height="144" rx="15" stroke="none"/>
          <rect x="1" y="1" width="217" height="142" rx="14" fill="none"/>
        </g>
        <rect id="矩形_2790" data-name="矩形 2790" width="192" height="121" rx="7" transform="translate(264 643)" fill="#fff"/>
        <line id="直线_2046" data-name="直线 2046" y2="19" transform="translate(271.5 694)" fill="none" stroke="#c6c7c6" stroke-linecap="round" stroke-width="2"/>
        <g id="椭圆_652" data-name="椭圆 652" transform="translate(458 698)" fill="#fff" stroke="#c6c7c6" stroke-width="1">
          <circle cx="4" cy="4" r="4" stroke="none"/>
          <circle cx="4" cy="4" r="3.5" fill="none"/>
        </g>
        <circle id="椭圆_653" data-name="椭圆 653" cx="4" cy="4" r="4" transform="translate(281 657)" fill="#fe8f00"/>
        <circle id="椭圆_654" data-name="椭圆 654" cx="4" cy="4" r="4" transform="translate(292 657)" fill="#fe8f00"/>
        <circle id="椭圆_655" data-name="椭圆 655" cx="4" cy="4" r="4" transform="translate(303 657)" fill="#fe8f00"/>
        <rect id="矩形_2791" data-name="矩形 2791" width="111" height="45" rx="2" transform="translate(281 676)" fill="#e5ecec"/>
        <rect id="矩形_2792" data-name="矩形 2792" width="54" height="16" rx="2" transform="translate(281 734)" fill="#e5ecec"/>
        <rect id="矩形_2793" data-name="矩形 2793" width="54" height="16" rx="2" transform="translate(338 734)" fill="#e5ecec"/>
        <rect id="矩形_2794" data-name="矩形 2794" width="54" height="16" rx="2" transform="translate(395 734)" fill="#e5ecec"/>
        <g id="组_7068" data-name="组 7068" transform="translate(-14 -122)">
          <g id="路径_8446" data-name="路径 8446" transform="translate(440.992 743)" fill="#fff">
            <path d="M 17.31737899780273 14 L 7.499999046325684 14 C 3.915889263153076 14 0.9999992251396179 11.08411026000977 0.9999992251396179 7.5 C 0.9999992251396179 3.915889978408813 3.915889263153076 1 7.499999046325684 1 L 13.49999904632568 1 C 17.08410835266113 1 20 3.915889978408813 20 7.5 C 20 7.890110015869141 20.00400924682617 8.272709846496582 20.00789833068848 8.642709732055664 C 20.03034973144531 10.78250026702881 20.04973983764648 12.63047981262207 19.26371002197266 13.42479991912842 C 18.88069915771484 13.81184959411621 18.24404907226562 14 17.31737899780273 14 Z" stroke="none"/>
            <path d="M 7.499999046325684 2 C 4.467288970947266 2 2 4.467289924621582 2 7.5 C 2 10.53271007537842 4.467288970947266 13 7.499999046325684 13 L 17.31737899780273 13 C 17.9273796081543 13 18.37770843505859 12.89846038818359 18.55290985107422 12.72140979766846 C 19.04541015625 12.22371006011963 19.02463912963867 10.24395942687988 19.00794982910156 8.653200149536133 C 19.0040397644043 8.280620574951172 19 7.895359992980957 19 7.5 C 19 4.467289924621582 16.5327091217041 2 13.49999904632568 2 L 7.499999046325684 2 M 7.499999046325684 0 L 13.49999904632568 0 C 17.64213943481445 0 21 3.35785961151123 21 7.5 C 21 11.64213943481445 21.45951843261719 15 17.31737899780273 15 L 7.499999046325684 15 C 3.357858657836914 15 0 11.64213943481445 0 7.5 C 0 3.35785961151123 3.357858657836914 0 7.499999046325684 0 Z" stroke="none" fill="#c6c7c6"/>
          </g>
          <g id="路径_8445" data-name="路径 8445" transform="translate(409.992 743)" fill="#fff">
            <path d="M 1 75.34189605712891 L 1 67 L 1 10 C 1 5.037377834320068 5.037377834320068 1 10 1 L 34 1 L 43 1 L 43 10 L 43 67 L 43 75.32997894287109 L 22.64012145996094 64.42488861083984 L 22.17155647277832 64.17391204833984 L 21.70140075683594 64.42191314697266 L 1 75.34189605712891 Z" stroke="none"/>
            <path d="M 10 2 C 5.588787078857422 2 2 5.588790893554688 2 10 L 2 67 L 2 73.68379974365234 L 21.23483467102051 63.53742218017578 L 22.17512893676758 63.04142379760742 L 23.11227035522461 63.54336547851562 L 42 73.65994262695312 L 42 67 L 42 10 L 42 2 L 34 2 L 10 2 M 10 0 L 34 0 C 35.71208190917969 0 44 0 44 0 C 44 0 44 6.189231872558594 44 10 L 44 67 C 44 72.52285003662109 44 77 44 77 L 22.16796493530273 65.306396484375 L 0 77 C 0 77 0 72.52285003662109 0 67 L 0 10 C 0 4.477149963378906 4.477153778076172 0 10 0 Z" stroke="none" fill="#c6c7c6"/>
          </g>
        </g>
        <path id="icon" d="M161.635,116.9a5.061,5.061,0,0,1-3.1-.713,5,5,0,0,1-3.086.713v-.64c1.87-.072,2.582-.47,2.582-1.215v-.256h1.013v.255c0,.745.719,1.144,2.588,1.215v.641Zm-4.6-4.785a8.456,8.456,0,0,1-.582,1.68h-.988a8.661,8.661,0,0,0,.576-1.68Zm-.994-.281-.327-1.079h.994l.327,1.079Zm-.294,4.092v-1.386a.431.431,0,0,1,.432-.432h4.707a.433.433,0,0,1,.438.432v1.386h-.988v-1.2a.253.253,0,0,0-.249-.249h-3.1a.249.249,0,0,0-.249.249v1.2Zm1.412-3.536a9.089,9.089,0,0,0,.51-1.66h.993c-.026.111-.046.215-.072.313h2.673a.31.31,0,0,1,.249.124.342.342,0,0,1,.052.274l-.287.948h-.994l.281-.9a.07.07,0,0,0-.007-.052.064.064,0,0,0-.059-.026h-2.014c-.092.334-.209.647-.333.974ZM160.3,113.8a9.522,9.522,0,0,1-1.013-.974,9.075,9.075,0,0,1-.8.974h-1.229a10.731,10.731,0,0,0,1.66-2.1h1.144c-.157.235-.307.47-.464.7h.51a14.122,14.122,0,0,0,1.51,1.406Zm2.108-.922a.266.266,0,0,0-.268-.249h-.15v-.372h1a.449.449,0,0,1,.464.438v3.6a.263.263,0,0,0,.268.255h.144v.373h-.994a.444.444,0,0,1-.464-.438v-3.6Zm-.131-.994-.216-1.183h1.1l.216,1.183Zm2.367,5.034v-2.857h-.765v-.379h.765v-2.393h-.725v-.379h3.34a.452.452,0,0,1,.457.444v4.936a.256.256,0,0,0,.262.248h.209v.379H167.13a.446.446,0,0,1-.457-.438v-4.941a.256.256,0,0,0-.262-.249h-.739v2.393h.765v.379h-.765v2.857Z" transform="translate(256.195 556.73)" fill="#c6c7c6"/>
        <path id="icon-2" data-name="icon" d="M17.287,0H2.76A1.673,1.673,0,0,0,1.088,1.669v17.2A1.673,1.673,0,0,0,2.76,20.54H14.017a.482.482,0,0,0,.36-.161l4.459-5.025a.483.483,0,0,0,.122-.32V1.669A1.673,1.673,0,0,0,17.287,0ZM5.475,3.565h9.368a.7.7,0,0,1,.662.728.7.7,0,0,1-.662.728H5.475a.7.7,0,0,1-.662-.728A.7.7,0,0,1,5.475,3.565Zm0,3.945h9.368a.731.731,0,0,1,0,1.456H5.475a.731.731,0,0,1,0-1.456Zm5.015,5.471H5.54a.726.726,0,1,1,0-1.452h4.951a.726.726,0,1,1,0,1.452Zm3.443,6.446V15.54a.666.666,0,0,1,.613-.706h3.346l.1.016Z" transform="translate(407.988 643)" fill="#fe8f29"/>
        <g id="组_7069" data-name="组 7069" transform="translate(289 684.353)">
          <path id="路径_8447" data-name="路径 8447" d="M364.178,173.1H345.59V156.562h18.588Z" transform="translate(-345.209 -152.13)" fill="#fff"/>
          <path id="路径_8448" data-name="路径 8448" d="M362.441,171.364H343.09v-17.3h19.351Zm-18.588-.763h17.825V154.825H343.853Z" transform="translate(-343.09 -150.012)" fill="#ccc"/>
          <path id="路径_8449" data-name="路径 8449" d="M132.421,546H130.55l-.89-7.216h2.761Z" transform="translate(-109.876 -456.577)" fill="#ffb7b7"/>
          <path id="路径_8450" data-name="路径 8450" d="M460.471,712.012h-6.032v-.076a2.348,2.348,0,0,1,2.348-2.348h3.684Z" transform="translate(-437.448 -620.771)" fill="#707774"/>
          <path id="路径_8451" data-name="路径 8451" d="M238.593,539.408l-1.827.4-2.417-6.857,2.7-.592Z" transform="translate(-198.59 -451.129)" fill="#ffb7b7"/>
          <path id="路径_8452" data-name="路径 8452" d="M577.738,703.85l-5.892,1.293-.016-.075a2.348,2.348,0,0,1,1.79-2.8h0l3.6-.79Z" transform="translate(-536.881 -613.902)" fill="#707774"/>
          <path id="路径_8453" data-name="路径 8453" d="M392.983,491.216l-9.24,1.993a21.248,21.248,0,0,1-2.185-10.131l9.24-1.993A20.691,20.691,0,0,0,392.983,491.216Z" transform="translate(-375.688 -427.135)" fill="#fe8f29"/>
          <path id="路径_8454" data-name="路径 8454" d="M51.845,371.418l-.079-.351,4.8-.97.079.351Z" transform="translate(-43.867 -313.625)" fill="#fff"/>
          <path id="路径_8455" data-name="路径 8455" d="M53.909,380.617l-.079-.351,4.8-.97.079.351Z" transform="translate(-45.616 -321.42)" fill="#fff"/>
          <path id="路径_8456" data-name="路径 8456" d="M55.973,389.816l-.079-.351,4.8-.97.079.351Z" transform="translate(-47.365 -329.216)" fill="#fff"/>
          <path id="路径_8457" data-name="路径 8457" d="M58.037,399.014l-.079-.351,4.8-.97.079.351Z" transform="translate(-49.114 -337.01)" fill="#fff"/>
          <path id="路径_8458" data-name="路径 8458" d="M60.1,408.213l-.079-.351,4.8-.97.079.351Z" transform="translate(-50.863 -344.805)" fill="#fff"/>
          <path id="路径_8459" data-name="路径 8459" d="M576.33,453.183a1.774,1.774,0,0,0-.76-2.612l.084-4.053-2.451-.652-.038,5.725a1.784,1.784,0,0,0,3.165,1.591Z" transform="translate(-537.968 -397.29)" fill="#ffb7b7"/>
          <path id="路径_8460" data-name="路径 8460" d="M384.743,188.15l-9.45-.214a21.248,21.248,0,0,1,.235-10.361l9.45.214A20.691,20.691,0,0,0,384.743,188.15Z" transform="translate(-369.919 -169.936)" fill="#fe8f29"/>
          <path id="路径_8461" data-name="路径 8461" d="M47.368,63.07l.005-.36,4.9.175-.005.36Z" transform="translate(-40.14 -53.141)" fill="#fff"/>
          <path id="路径_8462" data-name="路径 8462" d="M47.233,72.5l.005-.359,4.9.175-.005.36Z" transform="translate(-40.026 -61.13)" fill="#fff"/>
          <path id="路径_8463" data-name="路径 8463" d="M47.1,81.923l.005-.36,4.9.175-.005.36Z" transform="translate(-39.911 -69.118)" fill="#fff"/>
          <path id="路径_8464" data-name="路径 8464" d="M46.962,91.349l.005-.36,4.9.175-.005.36Z" transform="translate(-39.796 -77.105)" fill="#fff"/>
          <path id="路径_8465" data-name="路径 8465" d="M46.827,100.775l.005-.359,4.9.175-.005.359Z" transform="translate(-39.682 -85.094)" fill="#fff"/>
          <circle id="椭圆_656" data-name="椭圆 656" cx="3.427" cy="3.427" r="3.427" transform="translate(15.907 0)" fill="#fe8f29"/>
          <path id="路径_8466" data-name="路径 8466" d="M118.7,15.665l-1.3-1.586.2-.167,1.075,1.313,1.878-2.754.218.148Z" transform="translate(-99.49 -10.568)" fill="#fff"/>
          <path id="路径_8477" data-name="路径 8477" d="M643.5,742.544l2.483-4.813a23.384,23.384,0,0,0,9.4.08l1.065,5.223A57.7,57.7,0,0,0,643.5,742.544Z" transform="translate(-597.66 -644.62)" fill="#e6e6e6"/>
          <path id="路径_8478" data-name="路径 8478" d="M367.872,621.042l-.078-2.706.284.011.078,2.706Z" transform="translate(-311.673 -523.986)" fill="#fff"/>
          <path id="路径_8479" data-name="路径 8479" d="M360.414,620.759l-.078-2.706.285.011.078,2.706Z" transform="translate(-305.353 -523.746)" fill="#fff"/>
          <path id="路径_8480" data-name="路径 8480" d="M352.957,620.477l-.078-2.706.284.011.078,2.706Z" transform="translate(-299.034 -523.507)" fill="#fff"/>
          <path id="路径_8481" data-name="路径 8481" d="M466.166,446.652s-.9.361,0,14.069l.361,22.366h3.607l4.06-30.4,4.958,14.162,4.509,16.774,3.607-.9s-3.788-33.909-7.034-36.074S466.166,446.652,466.166,446.652Z" transform="translate(-447.047 -397.14)" fill="#2f2e41"/>
          <circle id="椭圆_657" data-name="椭圆 657" cx="3.749" cy="3.749" r="3.749" transform="translate(22.615 14.248)" fill="#ffb8b8"/>
          <path id="路径_8482" data-name="路径 8482" d="M474.206,280.25a9.077,9.077,0,0,0-6.313-.541,18,18,0,0,0-4.69,2.345l1.984,10.461-2.706,14.069s13.888-1.082,15.151,0,1.263-1.263,1.263-1.263l-1.082-13.347L479.8,283.5Z" transform="translate(-444.264 -256.171)" fill="#fe8f29"/>
          <path id="路径_8483" data-name="路径 8483" d="M489.252,216.161l.794,2.028a4.158,4.158,0,0,0,1.46,2.184,2.96,2.96,0,0,0,3.109-.327,4.854,4.854,0,0,0-2.185-8.835l-.038.679-.833-.7a.81.81,0,0,1-1.259.178,1.236,1.236,0,0,1-.4,1.354c-.448.427-1.729.94-1.676,1.7C488.262,214.934,489.046,215.634,489.252,216.161Z" transform="translate(-466.079 -198.423)" fill="#707774"/>
          <path id="路径_8484" data-name="路径 8484" d="M433.209,451.514a1.774,1.774,0,0,0,0-2.72l1.218-3.867-2.169-1.313-1.644,5.484a1.784,1.784,0,0,0,2.591,2.416Z" transform="translate(-416.97 -395.381)" fill="#ffb7b7"/>
          <path id="路径_8485" data-name="路径 8485" d="M441.427,297.142h-1.263s-1.984,1.263-1.984,3.066-2.886,22.907-2.886,22.907l3.066.541,2.706-14.79,1.984-3.968Z" transform="translate(-421.225 -271.259)" fill="#fe8f29"/>
          <path id="路径_8486" data-name="路径 8486" d="M553.5,306.6h3.427a7.569,7.569,0,0,1,1.623,3.607c.541,2.525,1.082,12.446,1.082,12.446l-.361,9.018h-2.706l-.361-11.724-1.8-7.576Z" transform="translate(-521.396 -279.273)" fill="#fe8f29"/>
          <path id="路径_8487" data-name="路径 8487" d="M403.276,724.88H345.141a.153.153,0,1,1,0-.305h58.136a.153.153,0,1,1,0,.305Z" transform="translate(-344.698 -633.471)" fill="#cbcbcb"/>
        </g>
        <g id="椭圆_658" data-name="椭圆 658" transform="translate(235 749)" fill="#fff" stroke="#c6c7c6" stroke-width="2">
          <circle cx="17" cy="17" r="17" stroke="none"/>
          <circle cx="17" cy="17" r="16" fill="none"/>
        </g>
        <circle id="椭圆_637" data-name="椭圆 637" cx="16.884" cy="16.884" r="16.884" transform="translate(235.232 749)" fill="#01cc83"/>
        <path id="路径_8488" data-name="路径 8488" d="M123.976,28.643,117.4,20.61l1.034-.845,5.441,6.651,9.508-13.945,1.1.752Z" transform="translate(126.053 745.443)" fill="#fff"/>
      </g>
    </g>
  </g>
</svg>
